<?xml version="1.0" standalone="no"?>
<!DOCTYPE svg PUBLIC "-//W3C//DTD SVG 20010904//EN"
 "http://www.w3.org/TR/2001/REC-SVG-20010904/DTD/svg10.dtd">
<svg version="1.0" xmlns="http://www.w3.org/2000/svg"
 width="500.000000pt" height="500.000000pt" viewBox="0 0 500.000000 500.000000"
 preserveAspectRatio="xMidYMid meet">

<g transform="translate(0.000000,500.000000) scale(0.100000,-0.100000)"
fill="#000000" stroke="none">
<path d="M2406 3297 c-74 -97 -75 -244 -3 -292 50 -32 104 24 78 81 -14 32
-14 126 0 175 22 70 -30 95 -75 36z"/>
<path d="M2571 3301 c-63 -89 -77 -176 -38 -251 25 -49 53 -64 88 -46 21 10
24 18 21 56 -6 108 -5 178 3 214 6 29 5 40 -6 47 -25 16 -47 9 -68 -20z"/>
<path d="M1679 3067 c-55 -37 -63 -63 -69 -250 -5 -178 -8 -187 -57 -187 -27
0 -53 -25 -53 -50 0 -25 26 -50 53 -50 49 0 52 -9 58 -187 6 -186 17 -225 68
-256 17 -10 50 -17 80 -17 44 0 53 3 62 24 15 32 -3 64 -39 71 -57 13 -57 10
-63 186 -4 91 -12 179 -19 197 -10 27 -10 39 0 60 9 17 15 86 18 192 2 91 8
169 13 175 6 5 26 14 46 20 46 13 61 35 45 69 -10 23 -18 26 -60 26 -35 0 -59
-7 -83 -23z"/>
<path d="M3178 3064 c-16 -34 -1 -56 45 -69 20 -6 40 -15 46 -20 5 -6 11 -84
13 -175 3 -111 9 -174 18 -192 11 -24 11 -32 0 -55 -9 -18 -16 -87 -19 -197
-6 -182 -5 -178 -64 -191 -35 -7 -54 -44 -38 -74 10 -17 21 -21 62 -21 30 0
63 7 80 17 52 31 62 70 69 256 5 178 8 187 57 187 27 0 53 25 53 50 0 25 -27
50 -54 50 -50 0 -54 13 -58 190 -3 132 -8 172 -22 198 -24 46 -71 72 -129 72
-41 0 -49 -3 -59 -26z"/>
<path d="M2940 1835 l0 -137 70 4 c63 3 73 7 103 36 29 30 32 37 32 97 0 60
-3 67 -32 97 -30 29 -40 33 -103 36 l-70 4 0 -137z m132 69 c24 -22 33 -78 18
-113 -12 -29 -46 -51 -80 -51 -18 0 -20 7 -20 96 l0 97 32 -7 c17 -3 40 -14
50 -22z"/>
<path d="M3210 1835 l0 -135 75 0 c73 0 75 1 75 25 0 23 -3 25 -50 25 l-50 0
0 35 c0 34 1 35 40 35 36 0 40 3 40 25 0 23 -4 25 -40 25 -36 0 -40 3 -40 25
0 23 3 25 50 25 47 0 50 2 50 25 0 24 -2 25 -75 25 l-75 0 0 -135z"/>
<path d="M3400 1963 c0 -5 19 -65 42 -135 37 -110 46 -127 65 -128 19 0 27 17
66 135 l46 135 -28 0 c-27 0 -29 -4 -51 -85 -13 -47 -26 -85 -29 -85 -4 0 -19
38 -35 85 -24 76 -30 85 -52 85 -13 0 -24 -3 -24 -7z"/>
<path d="M2820 1725 c0 -20 5 -25 24 -25 17 0 25 7 28 25 5 22 2 25 -23 25
-24 0 -29 -4 -29 -25z"/>
<path d="M2020 1500 c0 -48 2 -51 23 -48 19 3 22 9 22 48 0 39 -3 45 -22 48
-21 3 -23 0 -23 -48z m40 0 c0 -29 -4 -40 -15 -40 -16 0 -20 35 -9 64 11 29
24 16 24 -24z"/>
<path d="M2140 1500 c0 -46 2 -50 23 -49 16 1 18 2 5 6 -21 5 -24 39 -5 46 10
4 10 6 0 6 -19 1 -15 29 5 34 13 4 11 5 -5 6 -21 1 -23 -3 -23 -49z"/>
<path d="M2257 1510 c3 -25 8 -49 10 -53 9 -16 21 8 27 53 l5 45 -11 -40 -11
-40 -13 40 -13 40 6 -45z"/>
<path d="M2370 1500 c0 -46 2 -50 23 -49 16 1 18 2 5 6 -21 5 -24 39 -5 46 10
4 10 6 0 6 -19 1 -15 29 5 34 13 4 11 5 -5 6 -21 1 -23 -3 -23 -49z"/>
<path d="M2480 1500 c0 -45 2 -50 23 -49 12 0 16 3 10 6 -8 3 -13 23 -13 49 0
24 -4 44 -10 44 -5 0 -10 -22 -10 -50z"/>
<path d="M2592 1503 c3 -40 6 -48 23 -48 17 0 20 7 20 45 0 39 -3 45 -23 48
-22 3 -23 1 -20 -45z m34 12 c7 -28 0 -55 -16 -55 -5 0 -10 18 -10 40 0 44 16
54 26 15z"/>
<path d="M2705 1505 c1 -43 15 -79 15 -38 0 12 7 23 15 27 8 3 15 17 15 31 0
19 -5 25 -23 25 -20 0 -22 -5 -22 -45z m35 15 c0 -11 -4 -20 -10 -20 -5 0 -10
9 -10 20 0 11 5 20 10 20 6 0 10 -9 10 -20z"/>
<path d="M2820 1500 c0 -46 2 -50 23 -49 16 1 18 2 5 6 -21 5 -24 39 -5 46 10
4 10 6 0 6 -19 1 -15 29 5 34 13 4 11 5 -5 6 -21 1 -23 -3 -23 -49z"/>
<path d="M2931 1498 c1 -29 4 -43 6 -30 5 24 23 31 23 8 0 -8 4 -17 10 -21 5
-3 8 14 7 42 -2 41 -5 48 -24 51 -22 3 -23 0 -22 -50z m29 27 c0 -8 -4 -15
-10 -15 -5 0 -10 7 -10 15 0 8 5 15 10 15 6 0 10 -7 10 -15z"/>
</g>
</svg>
